mtllib materials.mtl
v 0.09253821 0.05779493 0.04754734
v 0.1289028 0.05070233 0.02585196
v 0.158939 -0.02827871 0.01636285
v 0.03477426 -0.106617 -0.12041
v 0.03261417 -0.05389321 -0.1258639
v 0.0297208 0.016729 -0.1331692
v -0.0728167 0.08451819 -0.07815558
v -0.0388021 0.006423235 -0.0892365
v 0.164159 -0.08787012 0.08162147
v 0.03276343 -0.08359551 0.1029397
v 0.1108317 -0.08406961 0.1074859
v -0.1044321 0.0656122 0.00396359
v -0.1214187 0.03623557 -0.04605484
v -0.05638376 -0.08248985 0.1375567
v -0.1721002 -0.1084834 -0.01088196
v -0.1208222 0.007637382 -0.02252299
v 0.08696455 0.03633702 -0.04138875
v 0.08491183 0.09132266 0.000472188
v 0.08513639 0.03571081 -0.04431987
v -0.01572021 -0.02307403 0.1277006
v 0.03952497 0.106006 0.02066058
v -0.04383157 0.1059901 -0.05131423
v 0.01529244 0.06824267 -0.09919435
v 0.05964809 0.08045292 -0.04028505
v 0.004221939 0.03444695 0.09989232
v -0.05359265 0.100505 0.04762506
v -0.124228 -0.1330549 -0.08201307
v -0.02278422 -0.165334 -0.2018428
v -0.005191833 0.1047866 0.06931311
v 0.09026504 -0.03419578 -0.09026206
vn 0.5238727 0.09756229 0.8461909
vn -0.5248773 -0.1088297 -0.844192
vn -0.01554785 -0.9944994 0.1035818
vn -0.7415965 0.6572893 -0.134185
vn 0.7504858 -0.0375067 -0.6598216
vn -0.7587202 0.3875354 0.523603
vn 0.7577106 0.3540204 -0.5482192
vn 0.7173693 0.4387732 -0.5411649
vn -0.05138275 0.3830502 0.9222974
vn 0.3594546 -0.09196396 0.9286199
vn 0.4384931 0.7544991 0.4883184
vn 0.2595989 0.8880142 -0.379525
vn -0.9592951 0.1672382 0.227562
vn -0.21371 0.4842588 0.848423
vn 0.7097749 0.4529871 -0.5394648
vn 0.8502036 -0.01958711 -0.5260897
vn -0.486287 -0.08845758 -0.8693103
vn -0.6579845 0.3689991 -0.6564268
vn -0.3863058 0.4299873 -0.816014
vn 0.6094933 0.5483415 -0.5725728
vn 0.2595746 0.8808768 -0.3958248
vn 0.7007867 0.4491943 -0.5541865
vn 0.4502044 0.7700247 0.452082
vn 0.2028975 0.9505349 -0.2351934
vn 0.466501 0.7627451 0.4478804
vn -0.01217048 0.9998297 0.01387316
vn -0.1077675 0.9931829 0.04442881
vn -0.4110633 0.3166226 0.854855
vn 0.3819667 0.4109798 0.8277664
vn 0.4777626 0.1379163 0.8675955
vn 0.6053105 0.1664531 0.7783911
vn -0.3991791 0.4092927 0.8204485
vn -0.5603675 0.828191 -0.00937062
vn -0.7327729 0.3090991 0.6062192
vn -0.9106747 0.07156994 0.4068777
vn -0.7748996 0.3919052 0.4959244
vn 0.4839458 0.5109206 -0.7104623
vn 0.250223 -0.8605626 0.4436446
vn -0.6938363 0.3937258 -0.6029688
vn 0.2531492 -0.849071 0.4636743
vn 0.0422166 -0.9892068 0.140313
vn -0.4759179 -0.04678158 -0.8782446
vn 0.0634298 -0.9926684 0.102889
vn 0.3492829 0.7056784 0.6164572
vn 0.7768594 -0.4328005 -0.4573547
vn 0.7263021 0.3448775 0.5945963
vn 0.7635463 0.3915459 -0.5135064
vn 0.2922072 0.5538904 -0.7796283
vn 0.4417203 -0.865427 -0.2364728
vn -0.5749354 0.8175278 -0.03313034
vn 0.1054191 0.7178955 -0.6881228
vt 0.1298826 0.09518482
vt 0.1274706 0.09873672
vt 0.1189842 0.09820566
vt -0.1156715 0.09275443
vt -0.1204551 0.09504757
vt -0.1268628 0.09811917
vt -0.1378815 0.0903767
vt -0.1292921 0.0902824
vt -0.04303065 0.01667247
vt -0.06621781 0.01023505
vt -0.04480598 0.003473093
vt -0.04209378 0.01080786
vt 0.01126308 0.1130718
vt 0.01717922 0.1118337
vt 0.01768011 0.1193826
vt -0.1242865 0.09021287
vt -0.1381345 0.07692157
vt -0.1345762 0.07298704
vt 0.09318255 0.1120172
vt 0.1102248 0.1036171
vt 0.1121935 0.1162113
vt -0.1300579 -0.007973869
vt -0.1383407 -0.00605095
vt -0.1395693 -0.01401057
vt -0.119412 -0.04992251
vt -0.1240004 -0.05453121
vt -0.1178645 -0.05818378
vt -0.1179291 -0.0578387
vt 0.1287503 0.07802057
vt 0.1329777 0.07144149
vt 0.1428806 0.08441298
vt 0.1143425 0.06949961
vt 0.1185211 0.06089686
vt 0.1221493 0.06719327
vt 0.1361529 0.0450769
vt 0.1435501 0.04311293
vt 0.1349688 0.04920385
vt 0.01554673 -0.05818086
vt 0.02037227 -0.05119199
vt 0.01381384 -0.04760658
vt 0.04455928 0.1609015
vt 0.04848053 0.155616
vt 0.05025166 0.1588691
vt 0.1379255 0.08143404
vt 0.1336366 0.07629574
vt 0.1481281 0.08089785
vt -0.1177289 -0.06571022
vt -0.1102203 -0.07462423
vt -0.1127628 -0.06429032
vt -0.1177198 0.1145432
vt -0.1180128 0.1143498
vt -0.1268941 0.1084867
vt -0.1234055 0.1022963
vt -0.1379248 0.08736435
vt -0.1359531 0.08006021
vt -0.1293354 0.08727107
vt -0.06109873 0.08600874
vt -0.04958172 0.09715675
vt -0.07001986 0.09973655
vt -0.07956181 0.06840312
vt -0.08589873 0.06833414
vt -0.09282702 0.06342202
vt -0.08595938 -0.08192652
vt -0.08262386 -0.08861551
vt -0.07628921 -0.0884324
vt 0.01160051 -0.05887261
vt 0.01005858 -0.0482688
vt 0.005554774 -0.04629615
vt -0.120546 -0.05724796
vt -0.1192577 -0.06199304
vt -0.1142695 -0.06065314
vt 0.1421418 0.03792151
vt 0.1399839 0.0426305
vt 0.1336609 0.04415141
vt 0.04538501 -0.03936091
vt 0.03752558 -0.02783061
vt 0.03646563 -0.03290091
vt 0.1423462 0.03112505
vt 0.1428 0.03771865
vt 0.1354207 0.03974874
vt 0.07615553 0.01341876
vt 0.06655149 0.0188085
vt 0.06349725 0.01294735
vt 0.07561243 0.0290182
vt 0.06295347 0.02856503
vt 0.06663109 0.02471945
vt 0.1487771 0.08359022
vt 0.1454403 0.08773497
vt 0.1385776 0.08418281
vt 0.1443604 0.07326648
vt 0.1513822 0.07649274
vt 0.142998 0.08370644
vt 0.1234991 0.07932138
vt 0.1353328 0.08206753
vt 0.1332706 0.09239207
vt 0.1292451 0.08296411
vt 0.1332899 0.08829667
vt 0.1214858 0.08542566
vt 0.1448884 0.08830892
vt 0.1305013 0.08339006
vt 0.1282859 0.07646902
vt 0.04580646 0.09456654
vt 0.03673563 0.09046002
vt 0.04278759 0.0859369
vt 0.1250957 0.1126554
vt 0.1206388 0.1187563
vt 0.1064395 0.1041206
vt 0.09443951 0.1362896
vt 0.09220331 0.1424792
vt 0.0760933 0.1297762
vt 0.1105471 0.1218062
vt 0.1077802 0.1193437
vt 0.1061504 0.1067012
vt -0.09776372 -0.05729799
vt -0.07771602 -0.06203746
vt -0.08467475 -0.05279107
vt -0.006719402 0.03317971
vt -0.01708455 0.02803352
vt -0.005815598 0.01663482
vt -0.06036188 0.08570343
vt -0.05322757 0.09105627
vt -0.06196647 0.1049008
vt -0.003341734 0.03335444
vt -0.002322425 0.01681626
vt 0.004757272 0.01139139
vt -0.05412402 -0.007711625
vt -0.03651535 -0.0005747628
vt -0.03744923 0.008943414
vt -0.1334064 0.0788868
vt -0.1228905 0.06718597
vt -0.126748 0.0860601
vt -0.06317274 0.02048642
vt -0.05859264 -0.002469882
vt -0.04168984 0.0139537
vt 0.1307547 0.06662119
vt 0.1231158 0.06214691
vt 0.1248874 0.05647826
vt -0.1015592 0.1190619
vt -0.07860015 0.1262706
vt -0.08577742 0.131453
vt 0.1260459 0.09665354
vt 0.123341 0.08525234
vt 0.136759 0.09302969
vt -0.1339376 -0.03397654
vt -0.1272745 -0.03939376
vt -0.1251981 -0.02686825
vt -0.07889804 -0.03213659
vt -0.08096121 -0.02538867
vt -0.08936055 -0.02360131
vt -0.07028506 0.09512772
vt -0.08265339 0.09225993
vt -0.08793207 0.08757734
vt 0.0451891 0.09350733
vt 0.04151376 0.09609737
vt 0.03852595 0.08745691
vt -0.04592494 -0.02089988
vt -0.05865476 -0.02712314
vt -0.05552148 -0.03034787
o group264955599
g mesh264955599
usemtl mat22
f 3/3/1 2/2/1 1/1/1
f 8/8/2 7/7/2 6/6/2 5/5/2 4/4/2
f 11/12/3 10/11/3 4/10/3 9/9/3
f 7/15/4 13/14/4 12/13/4
f 4/18/5 5/17/5 3/16/5
f 16/21/6 15/20/6 14/19/6
f 17/24/7 2/23/7 3/22/7
f 17/28/8 19/27/8 18/26/8 2/25/8
f 1/31/9 10/30/9 11/29/9
f 20/34/10 14/33/10 10/32/10
f 2/37/11 21/36/11 1/35/11
f 24/40/12 23/39/12 22/38/12
f 13/43/13 16/42/13 12/41/13
f 26/46/14 20/45/14 25/44/14
f 19/49/15 6/48/15 24/47/15
f 5/53/16 6/52/16 19/51/16 17/50/16
f 8/56/17 13/55/17 7/54/17
f 8/59/18 28/58/18 27/57/18
f 22/62/19 23/61/19 6/60/19
f 6/65/20 23/64/20 24/63/20
f 18/68/21 24/67/21 22/66/21
f 19/71/22 24/70/22 18/69/22
f 2/74/23 18/73/23 21/72/23
f 21/77/24 18/76/24 22/75/24
f 1/80/25 21/79/25 29/78/25
f 29/83/26 21/82/26 22/81/26
f 26/86/27 29/85/27 22/84/27
f 25/89/28 29/88/28 26/87/28
f 1/92/29 29/91/29 25/90/29
f 1/95/30 25/94/30 10/93/30
f 10/98/31 25/97/31 20/96/31
f 14/101/32 20/100/32 26/99/32
f 12/104/33 26/103/33 22/102/33
f 14/107/34 26/106/34 12/105/34
f 14/110/35 12/109/35 16/108/35
f 15/113/36 16/112/36 13/111/36
f 4/116/37 28/115/37 8/114/37
f 27/119/38 28/118/38 4/117/38
f 8/122/39 27/121/39 15/120/39
f 15/125/40 27/124/40 4/123/40
f 10/128/41 14/127/41 15/126/41
f 8/131/42 15/130/42 13/129/42
f 10/134/43 15/133/43 4/132/43
f 11/137/44 9/136/44 3/135/44
f 3/140/45 9/139/45 4/138/45
f 1/143/46 11/142/46 3/141/46
f 3/146/47 30/145/47 17/144/47
f 17/149/48 30/148/48 5/147/48
f 5/152/49 30/151/49 3/150/49
f 12/155/50 22/154/50 7/153/50
f 7/158/51 22/157/51 6/156/51
